# xmcd
# Track frame offsets:
# 150
# 17795
# 32740
# 54120
# 73785
# 89040
# 102027
# 113580
# 125690
# 136545
# 155205
# 171090
# 183965
# 202160
# 215185
# 231737
#
# Disc length: 3287 seconds
# Revision: 0
# Processed by: cddbd v1.5.1PL2 Copyright (c) Steve Scherf et al.
# Submitted via: VisiTrax 2.10.0.248 - For more info visit www.synapsa.com
#
DISCID=eb0cd510
DTITLE=Various Artist - The Winners 2005 [CD 2]
DYEAR=2004
DGENRE=
TTITLE0=Lee Kernaghan and Colin Buchanan - Missin' Slim
TTITLE1=John Williamson - It Goes Without Saying
TTITLE2=Beccy Cole - Sorry I Asked
TTITLE3=Brendon Wolmsley - Bottle Tree Lane
TTITLE4=Lorin Nicholson - Summer Rain
TTITLE5=Troy Cassar-Daley and Shane Howard - River Boy
TTITLE6=Felicity Urquhart and Glen Hannah - Dear Someone
TTITLE7=Travis Collins - Bridge That You Won't Burn
TTITLE8=Sensitive New Age Cowpersons - Twangin' The Wires
TTITLE9=Jonah's Road - Getting By Without You
TTITLE10=Peter Pratt - Where I'm Longing To Go
TTITLE11=Graeme Connors - Aussie Girls
TTITLE12=Carter and Carter - Play That Song
TTITLE13=Bushwhackers - Heart Of Australia
TTITLE14=Tom Curtain - The Windmill Song
TTITLE15=Feral Swing Katz - Pedal Patter Medley
EXTD=
EXTT0=
EXTT1=
EXTT2=
EXTT3=
EXTT4=
EXTT5=
EXTT6=
EXTT7=
EXTT8=
EXTT9=
EXTT10=
EXTT11=
EXTT12=
EXTT13=
EXTT14=
EXTT15=
PLAYORDER=
